# xmcd
#
# Track frame offsets: 
#        150
#        15912
#        35740
#        52851
#        93486
#        112358
#        130857
#        151808
#
# Disc length: 2303 seconds
#
# Revision: 1
# Processed by: cddbd v1.5.2PL0 Copyright (c) Steve Scherf et al.
# Submitted via: ExactAudioCopy v1.0b3
#
DISCID=5e08fd08
DTITLE=佐野元春 - HEARTLAND (紙ジャケット仕様) Disc 1 MHCL-707-708
DYEAR=2005
DGENRE=JPop
TTITLE0=アンジェリーナ
TTITLE1=冒険者たち
TTITLE2=君を探している
TTITLE3=ハートビート
TTITLE4=コンプリケーション・シェイクダウン
TTITLE5=ニューエイジ
TTITLE6=君を汚したのは誰
TTITLE7=インディビジュアリスト
EXTD=YEAR: 1988
EXTT0=
EXTT1=
EXTT2=
EXTT3=
EXTT4=
EXTT5=
EXTT6=
EXTT7=
PLAYORDER=
